<svg width="122" height="31" viewBox="0 0 122 31" fill="none" xmlns="http://www.w3.org/2000/svg">
<path d="M16.48 6.12V3.32H0.56V6.12H7.04V30H10V6.12H16.48ZM16.8606 30H19.7406V21.32C19.7406 20.12 19.8206 18.16 20.9406 16.84C21.7806 15.84 22.8606 15.56 23.8606 15.56C25.1406 15.56 26.0206 16.04 26.5806 16.76C27.2606 17.64 27.3406 18.8 27.3406 19.8V30H30.2206V19.72C30.2206 17.88 30.1006 16.52 29.2606 15.28C28.2606 13.8 26.4606 13 24.5006 13C21.7406 13 20.2606 14.64 19.7406 15.32V0.839999H16.8606V30ZM47.5791 24.44C47.2191 25.24 46.6191 26.08 45.8591 26.72C44.8991 27.52 43.8191 27.92 42.4591 27.92C39.5791 27.92 37.2191 25.72 37.1791 22.28H50.0991C50.1791 20.08 49.5791 17.52 48.5391 16.04C47.5391 14.6 45.4991 13 42.2591 13C37.2591 13 34.2191 16.84 34.2191 21.8C34.2191 27.96 38.4191 30.48 42.4191 30.48C44.5391 30.48 46.4191 29.8 47.9391 28.44C48.7791 27.68 49.4991 26.68 49.9791 25.76L47.5791 24.44ZM37.3791 19.88C37.8191 17.4 39.8191 15.56 42.2591 15.56C44.6991 15.56 46.6591 17.28 47.1391 19.88H37.3791Z" fill="white"/>
<path d="M54.5169 30H57.3969V20.96C57.3969 18.96 57.7569 15.56 61.0369 15.56C64.0769 15.56 64.0369 19 64.0369 20.16V30H66.9169V20.76C66.9169 18.76 67.2769 15.56 70.5969 15.56C73.3169 15.56 73.5569 18.04 73.5569 19.92V30H76.4369V19.48C76.4369 17.12 75.9569 13 71.0369 13C69.9169 13 67.6369 13.16 66.0369 15.68C65.7169 15.12 64.5169 13 61.5169 13C59.7569 13 58.3169 13.8 57.3969 15.16V13.4H54.5169V30ZM94.6197 15.76C93.8597 14.76 92.1397 13 88.9397 13C84.6997 13 80.8597 15.96 80.8597 21.68C80.8597 27.52 84.7397 30.48 88.9397 30.48C91.8597 30.48 93.6597 28.92 94.6197 27.68V30H97.4997V13.4H94.6197V15.76ZM89.2597 15.56C91.8197 15.56 94.7797 17.44 94.7797 21.72C94.7797 25 92.7797 27.92 89.2597 27.92C85.8197 27.92 83.8197 25.24 83.8197 21.68C83.8197 17.64 86.4197 15.56 89.2597 15.56ZM102.954 30H105.834V21.24C105.834 18.52 106.314 17.4 106.794 16.76C107.234 16.2 107.954 15.72 109.114 15.72C109.554 15.72 110.154 15.84 110.794 16.28L112.154 13.68C111.434 13.32 110.474 13 109.594 13C107.354 13 106.114 14.76 105.834 15.2V13.4H102.954V30ZM121.412 16.04V13.4H118.532V7.4H115.652V13.4H113.892V16.04H115.652V30H118.532V16.04H121.412Z" fill="#FBB20A"/>
</svg>
